<svg width="24" height="24" viewBox="0 0 24 24" fill="none" xmlns="http://www.w3.org/2000/svg">
<g opacity="0.8">
<path fill-rule="evenodd" clip-rule="evenodd" d="M2 13.5V18.9C2 20.6 3.7375 22 5.875 22H18.125C20.25 22 22 20.61 22 18.9V13.5C22 13.22 21.725 13 21.375 13H2.625C2.275 13 2 13.22 2 13.5ZM9 17.5C9 18.3284 8.32843 19 7.5 19C6.67157 19 6 18.3284 6 17.5C6 16.6716 6.67157 16 7.5 16C8.32843 16 9 16.6716 9 17.5ZM16.5 19C17.3284 19 18 18.3284 18 17.5C18 16.6716 17.3284 16 16.5 16C15.6716 16 15 16.6716 15 17.5C15 18.3284 15.6716 19 16.5 19Z" fill="#323232"/>
<path d="M18.125 2H5.875C3.7375 2 2 3.39 2 5.1V7.5C2 7.78 2.275 8 2.625 8H21.375C21.725 8 22 7.78 22 7.5V5.1C22 3.39 20.2625 2 18.125 2ZM15.125 5.75H8.875C8.3625 5.75 7.9375 5.41 7.9375 5C7.9375 4.59 8.3625 4.25 8.875 4.25H15.125C15.6375 4.25 16.0625 4.59 16.0625 5C16.0625 5.41 15.6375 5.75 15.125 5.75Z" fill="#323232"/>
<path d="M21.375 12H2.625C2.275 12 2 11.78 2 11.5V9.5C2 9.22 2.275 9 2.625 9H21.375C21.725 9 22 9.22 22 9.5V11.5C22 11.78 21.725 12 21.375 12Z" fill="#323232"/>
</g>
</svg>
