<svg width="24" height="24" viewBox="0 0 24 24" fill="none" xmlns="http://www.w3.org/2000/svg">
<g opacity="0.8">
<path d="M17.2994 15.1836C18.0345 14.7122 19 15.2265 19 16.0836V17.4656C19 18.8262 17.9138 20.2832 16.6082 20.7117L13.1082 21.8473C12.4937 22.0509 11.4953 22.0509 10.8918 21.8473L7.39185 20.7117C6.07524 20.2832 5 18.8262 5 17.4656V16.0728C5 15.2265 5.96552 14.7122 6.68966 15.1729L8.94984 16.6085C9.81662 17.1763 10.9138 17.4549 12.011 17.4549C13.1082 17.4549 14.2053 17.1763 15.0721 16.6085L17.2994 15.1836Z" fill="#323232"/>
<path d="M20.4932 6.38267L14.1259 2.52297C12.9779 1.82568 11.0858 1.82568 9.93779 2.52297L3.53866 6.38267C1.48711 7.61031 1.48711 10.3897 3.53866 11.6271L5.23943 12.6485L9.93779 15.477C11.0858 16.1743 12.9779 16.1743 14.1259 15.477L18.7924 12.6485L20.2487 11.7646V14.7699C20.2487 15.1726 20.6101 15.5065 21.0459 15.5065C21.4817 15.5065 21.8432 15.1726 21.8432 14.7699V9.93792C22.2683 8.67099 21.8325 7.19783 20.4932 6.38267Z" fill="#323232"/>
</g>
</svg>
